Coordinates
version=1
nRows=11
nColumns=63
inDegrees=yes

Units are S.I. units (second, meters, Newtons, ...)
If the header above contains a line with 'inDegrees', this indicates whether rotational values are in degrees (yes) or radians (no).

endheader
time	pelvis_tilt	pelvis_list	pelvis_rotation	pelvis_tx	pelvis_ty	pelvis_tz	hip_flexion_r	hip_adduction_r	hip_rotation_r	knee_angle_r	knee_angle_r_beta	ankle_angle_r	subtalar_angle_r	mtp_angle_r	hip_flexion_l	hip_adduction_l	hip_rotation_l	knee_angle_l	knee_angle_l_beta	ankle_angle_l	subtalar_angle_l	mtp_angle_l	L5_S1_Flex_Ext	L5_S1_Lat_Bending	L5_S1_axial_rotation	L4_L5_Flex_Ext	L4_L5_Lat_Bending	L4_L5_axial_rotation	L3_L4_Flex_Ext	L3_L4_Lat_Bending	L3_L4_axial_rotation	L2_L3_Flex_Ext	L2_L3_Lat_Bending	L2_L3_axial_rotation	L1_L2_Flex_Ext	L1_L2_Lat_Bending	L1_L2_axial_rotation	L1_T12_Flex_Ext	L1_T12_Lat_Bending	L1_T12_axial_rotation	Abs_r3	Abs_r2	Abs_r1	Abs_t1	Abs_t2	neck_flexion	neck_bending	neck_rotation	arm_flex_r	arm_add_r	arm_rot_r	elbow_flex_r	pro_sup_r	wrist_flex_r	wrist_dev_r	arm_flex_l	arm_add_l	arm_rot_l	elbow_flex_l	pro_sup_l	wrist_flex_l	wrist_dev_l
      3.89830508	     -0.08099701	    -11.92347861	     87.39308294	      0.12716609	      0.94814615	      0.48340880	     25.89850070	     -2.13232280	     -8.37466218	     31.84873559	      0.55586530	     41.16917882	     15.18717032	      0.00000000	     19.08195021	     -4.87867287	    -13.67264607	     26.65474976	      0.46521314	     42.57019889	     -1.22914314	      0.00000000	      0.19080423	      0.20588361	      2.35015598	      0.35434254	      0.27382520	      2.49704073	      0.31347228	      0.50058540	      2.49704073	      0.21807016	      0.50058540	      2.05638649	      0.17718081	      0.41983785	      1.90950174	      0.10902554	      0.31891370	      1.76261699	      1.36289557	      2.32899652	     13.07086254	      0.00000000	      0.00000000	    -20.68045637	      7.72809688	     -3.58062543	    143.40602552	    -97.78110134	    107.92811308	    105.67009256	     56.87044662	     -0.48660197	     20.48148189	     95.68138646	    -60.93259626	     54.78203082	     58.28291217	     76.62383781	      8.95608237	      6.93113072
      3.91525424	      0.17713264	    -12.24778232	     87.17239121	      0.12517489	      0.94598281	      0.48772661	     26.88793121	     -2.11984539	     -8.64564696	     32.61394797	      0.56922077	     41.10444167	     15.55763015	      0.00000000	     20.30492485	     -5.08129536	    -13.01344753	     27.79628407	      0.48513668	     42.55860942	     -2.43962761	      0.00000000	      0.13379793	      0.30942696	      2.40339207	      0.24847614	      0.41153786	      2.55360408	      0.21981662	      0.75234071	      2.55360408	      0.15291766	      0.75234071	      2.10296806	      0.12424476	      0.63098346	      1.95275606	      0.07645214	      0.47930236	      1.80254405	      0.95570525	      3.50029965	     13.36694568	      0.00000000	      0.00000000	    -21.43529782	      7.61529676	     -3.22029372	    146.85333843	    -97.48360629	    105.78557630	    107.20593365	     61.54356807	     -2.15052613	     15.08080981	     95.88909924	    -60.22591999	     56.38239948	     52.23291854	     77.62314835	     11.63117183	      7.69783199
      3.93220339	      0.31273343	    -12.59990743	     87.00259648	      0.12341328	      0.94482608	      0.49200600	     27.60747875	     -2.18717276	     -8.99076942	     32.85385332	      0.57340791	     40.80141786	     15.87005080	      0.00000000	     21.30196572	     -5.12602860	    -12.52831070	     28.41988851	      0.49602063	     42.13680116	     -3.47670053	      0.00000000	      0.07750787	      0.37552114	      2.50876794	      0.14393987	      0.49944312	      2.66556594	      0.12733768	      0.91304210	      2.66556594	      0.08858374	      0.91304210	      2.19517195	      0.07197381	      0.76576271	      2.03837395	      0.04428800	      0.58168225	      1.88157596	      0.55363096	      4.24797026	     13.95301466	      0.00000000	      0.00000000	    -21.54154579	      7.27253152	     -3.42421175	    150.91927293	    -98.67432719	    103.97413557	    109.25700571	     68.32629728	     -3.05308348	     11.01342296	     97.45253629	    -58.49035957	     60.31757701	     45.62400942	     78.40914738	     13.09346535	     10.54620038
      3.94915254	      0.12503418	    -13.04154427	     86.82247640	      0.12250611	      0.94449458	      0.49598541	     28.18449263	     -2.46398904	     -9.25174882	     32.66675761	      0.57014248	     40.22449965	     16.11938606	      0.00000000	     22.09304487	     -4.94730979	    -12.53889859	     28.54073235	      0.49812975	     41.46385197	     -3.81832907	      0.00000000	      0.03179101	      0.36178767	      2.57451131	      0.05903909	      0.48117760	      2.73541826	      0.05222946	      0.87965054	      2.73541826	      0.03633395	      0.87965054	      2.25269739	      0.02952114	      0.73775742	      2.09179044	      0.01816539	      0.56040910	      1.93088348	      0.22708004	      4.09261448	     14.31865953	      0.00000000	      0.00000000	    -20.96961252	      6.96371981	     -3.91254690	    157.76856793	   -101.45850221	    105.30048323	    111.68895951	     75.60955077	     -3.83936454	      7.45616768	    101.69970878	    -56.86202997	     70.69809920	     39.41236515	     75.09999069	     11.79300968	     13.76592145
      3.96610169	      0.14728850	    -13.58362862	     86.75149818	      0.12105931	      0.94521683	      0.49929950	     28.43043019	     -2.54300986	     -9.74677040	     31.78022836	      0.55466962	     39.25587568	     16.46896347	      0.00000000	     22.75822971	     -4.82308347	    -12.22530448	     28.25378597	      0.49312159	     40.52984685	     -4.44598456	      0.00000000	      0.01117685	      0.35829506	      2.62433321	      0.02075653	      0.47653243	      2.78835404	      0.01836245	      0.87115861	      2.78835404	      0.01277402	      0.87115861	      2.29629156	      0.01037882	      0.73063529	      2.13227073	      0.00638645	      0.55499905	      1.96824991	      0.07983513	      4.05310539	     14.59575403	      0.00000000	      0.00000000	    -19.86951177	      6.45695162	     -4.49198763	    160.18192506	   -104.96664271	    103.55167366	    114.20022945	     81.73080067	     -5.62809455	      3.95502175	    104.24758572	    -55.31767186	     79.34141349	     34.46528662	     70.46480697	      9.96001825	     16.74179221
      3.98305085	      0.24707625	    -14.16407629	     86.99684070	      0.11921067	      0.94671697	      0.50201070	     28.29023122	     -2.61311303	    -10.51042330	     30.26258525	      0.52818175	     38.09196628	     16.89360018	      0.00000000	     23.33885160	     -4.68174510	    -11.82331040	     27.75447352	      0.48440695	     39.51964320	     -4.71629218	      0.00000000	      0.01195390	      0.34674391	      2.65100523	      0.02219959	      0.46116940	      2.81669305	      0.01963907	      0.84307314	      2.81669305	      0.01366212	      0.84307314	      2.31962957	      0.01110039	      0.70708018	      2.15394175	      0.00683046	      0.53710631	      1.98825392	      0.08538553	      3.92243644	     14.74409577	      0.00000000	      0.00000000	    -18.43341469	      6.04765746	     -5.49647043	    158.37699289	   -108.94974384	     99.63238451	    116.43258819	     85.22923851	     -8.49725443	      0.92845319	    105.40709502	    -54.25840993	     85.06125205	     31.36660372	     66.84732620	      7.51546295	     18.08851493
      4.00000000	      0.18737465	    -14.63426858	     87.04267030	      0.11824926	      0.94884863	      0.50451485	     27.94030303	     -2.66618252	    -11.03129880	     28.60926523	      0.49932587	     36.73393152	     17.18439434	      0.00000000	     23.62189328	     -4.49132133	    -11.75492857	     27.04112868	      0.47195673	     38.48493111	     -4.71290490	      0.00000000	      0.00697441	      0.30350233	      2.63713675	      0.01295217	      0.40365809	      2.80195780	      0.01145825	      0.73793555	      2.80195780	      0.00797105	      0.73793555	      2.30749466	      0.00647643	      0.61890194	      2.14267361	      0.00398518	      0.47012510	      1.97785257	      0.04981749	      3.43327900	     14.66696348	      0.00000000	      0.00000000	    -16.86382082	      5.89483038	     -6.09752144	    157.53365765	   -112.86017265	     98.93706676	    117.87765939	     86.84374423	    -12.17348484	     -0.51047384	    105.80388447	    -54.63067635	     86.22730277	     30.50242860	     66.90802541	      5.35111842	     19.13536694
      4.01694915	      0.05299066	    -15.00791015	     87.25273278	      0.11753973	      0.95115601	      0.50700493	     27.33098204	     -2.76683455	    -11.44235075	     26.76783830	      0.46718691	     35.33881940	     17.27288281	      0.00000000	     23.81434482	     -4.18905387	    -11.58823950	     26.34390439	      0.45978787	     37.48689977	     -4.51869096	      0.00000000	      0.00505971	      0.23860233	      2.60176422	      0.00939638	      0.31734110	      2.76437448	      0.00831259	      0.58013770	      2.76437448	      0.00578274	      0.58013770	      2.27654369	      0.00469845	      0.48655787	      2.11393343	      0.00289112	      0.36959500	      1.95132316	      0.03614099	      2.69911725	     14.47023206	      0.00000000	      0.00000000	    -15.43450041	      6.04874302	     -6.92088897	    155.00098457	   -116.57636218	     98.75536005	    118.60224097	     87.33774214	    -15.69936723	      0.68750879	    106.77600360	    -54.95643404	     86.87610227	     30.09400108	     67.36924332	      3.55864188	     18.90139725
      4.03389831	     -0.30300586	    -15.21233260	     87.60498354	      0.11727879	      0.95353357	      0.50970867	     26.55682154	     -3.09595306	    -11.77315514	     25.03187706	      0.43688867	     34.02266609	     17.16900094	      0.00000000	     23.87845750	     -3.62336818	    -11.22661563	     25.70240221	      0.44859154	     36.40741749	     -4.26379955	      0.00000000	     -0.01614156	      0.13098148	      2.51374872	     -0.02997649	      0.17420537	      2.67085801	     -0.02651897	      0.31846837	      2.67085801	     -0.01844819	      0.31846837	      2.19953013	     -0.01498905	      0.26709743	      2.04242083	     -0.00922329	      0.20289031	      1.88531154	     -0.11529755	      1.48168870	     13.98071624	      0.00000000	      0.00000000	    -14.23731083	      6.43381570	     -7.89846440	    152.61025516	   -119.88096701	    100.25861781	    118.24360338	     86.84853715	    -16.97926721	      4.20845332	    108.19075720	    -55.03799170	     86.13146349	     29.77184600	     68.66658329	      1.64147936	     18.02198384
      4.05084746	     -0.56639000	    -15.40480833	     88.02902226	      0.11673364	      0.95571399	      0.51254319	     25.79634418	     -3.34680794	    -12.01426096	     23.40092171	      0.40842313	     32.62270185	     16.91779916	      0.00000000	     24.01738143	     -3.03877099	    -10.40956607	     25.18049936	      0.43948262	     35.25298604	     -4.62224554	      0.00000000	     -0.03403717	      0.03423254	      2.43138220	     -0.06321043	      0.04552928	      2.58334359	     -0.05591967	      0.08323300	      2.58334359	     -0.03890108	      0.08323300	      2.12745943	     -0.03160692	      0.06980700	      1.97549804	     -0.01944884	      0.05302621	      1.82353665	     -0.24312412	      0.38724535	     13.52261840	      0.00000000	      0.00000000	    -13.42409347	      6.79758441	     -8.74705485	    149.47782792	   -122.27254086	    102.04223297	    116.81119093	     84.72079293	    -15.27228389	     10.16047540	    106.86406819	    -55.06654145	     75.58271336	     30.36293576	     76.44367778	      0.18339537	     17.41213587
      4.06779661	     -0.88821966	    -15.61240889	     88.65980959	      0.11601844	      0.95714268	      0.51572348	     25.25180352	     -3.75021021	    -12.22088613	     22.16903872	      0.38692272	     31.51242537	     16.55344659	      0.00000000	     24.31594760	     -2.33701980	     -9.37836202	     24.83270996	      0.43341255	     34.24245291	     -5.08973526	      0.00000000	     -0.06033371	     -0.08071012	      2.34164261	     -0.11204574	     -0.10734446	      2.48799527	     -0.09912225	     -0.19623858	      2.48799527	     -0.06895540	     -0.19623858	      2.04893728	     -0.05602588	     -0.16458407	      1.90258462	     -0.03447468	     -0.12501997	      1.75623196	     -0.43095767	     -0.91300901	     13.02351370	      0.00000000	      0.00000000	    -12.76987854	      7.15578908	     -9.86372297	    145.91340148	   -123.78728061	    104.22468847	    113.67076559	     77.33190330	    -10.88997984	     14.92045632	    105.51875808	    -54.74187711	     64.80685268	     32.16739428	     82.07972116	     -2.91086299	     16.01954131
